<mxfile host="app.diagrams.net" modified="2024-02-24T05:58:37.918Z" agent="Mozilla/5.0 (Macintosh; Intel Mac OS X 10_15_7) AppleWebKit/537.36 (KHTML, like Gecko) Chrome/121.0.0.0 Safari/537.36" version="23.1.6" etag="Q6OzZ-7y6e_jVY8CJ9Nu" type="github">
  <diagram name="Page-1" id="nsrFb-RAUtUzDfO3lB8A">
    <mxGraphModel>
      <root>
        <mxCell id="0" />
        <mxCell id="1" parent="0" />
      </root>
    </mxGraphModel>
  </diagram>
</mxfile>
